<svg xmlns="http://www.w3.org/2000/svg" width="40.213" height="45" viewBox="0 0 40.213 45">
  <path id="book-svgrepo-com" d="M42.255,47H8.745A5.751,5.751,0,0,1,3,41.255V10.617c0-2.831,0-4.252.626-5.48A5.709,5.709,0,0,1,6.137,2.626C7.366,2,8.786,2,11.617,2H34.6c2.831,0,4.252,0,5.48.626a5.708,5.708,0,0,1,2.511,2.511c.626,1.229.626,2.65.626,5.48V36.468a.958.958,0,0,1-.958.958H40.819v7.659h1.436a.958.958,0,1,1,0,1.915ZM4.915,41.255a3.834,3.834,0,0,0,3.83,3.83H38.9V37.426H8.745A3.834,3.834,0,0,0,4.915,41.255Zm6.7-37.34c-2.525,0-3.792,0-4.611.417A3.806,3.806,0,0,0,5.333,6.006c-.417.819-.417,2.086-.417,4.611V36.976a5.722,5.722,0,0,1,3.83-1.466H41.3V10.617c0-2.525,0-3.792-.417-4.611a3.805,3.805,0,0,0-1.673-1.674c-.819-.417-2.086-.417-4.611-.417Zm18.67,19.149H15.926a.958.958,0,0,1,0-1.915H30.287a.958.958,0,0,1,0,1.915Zm0-9.574H15.926a.958.958,0,0,1,0-1.915H30.287a.958.958,0,0,1,0,1.915Z" transform="translate(-3 -2)" fill="#fff"/>
</svg>
