<svg xmlns="http://www.w3.org/2000/svg" width="41.395" height="45" viewBox="0 0 41.395 45">
  <g id="writer-svgrepo-com" transform="translate(-18.023)">
    <path id="Path_24906" data-name="Path 24906" d="M58.818,14.89H55.651V13.244A2.452,2.452,0,0,0,53.2,10.8H49.821V.6a.6.6,0,0,0-.6-.6h-21a.6.6,0,0,0-.6.6V10.8H24.19a2.452,2.452,0,0,0-2.449,2.449V14.89H18.623a.6.6,0,0,0-.6.6v6.436a.6.6,0,0,0,.6.6h3.126v.652a3.86,3.86,0,0,1-1.076,2.68,5.056,5.056,0,0,0-1.408,3.51V40.736A2.568,2.568,0,0,0,21.83,43.3h.288v1.1a.6.6,0,0,0,1.2,0V43.3h30.6v1.1a.6.6,0,0,0,1.2,0V43.3h.488a2.568,2.568,0,0,0,2.566-2.566V29.368a5.055,5.055,0,0,0-1.408-3.51,3.861,3.861,0,0,1-1.076-2.68v-.652h3.126a.6.6,0,0,0,.6-.6V15.491A.6.6,0,0,0,58.818,14.89ZM22.949,23.1v-2.6H54.492v2.6Zm23.726,1.2c-.975.967-3.826,1.975-7.954,1.975s-6.979-1.009-7.954-1.975ZM48.621,1.2V17H28.82V1.2ZM22.942,13.244A1.25,1.25,0,0,1,24.19,12h3.43v5h-1.3a.6.6,0,0,0,0,1.2h24.8a.6.6,0,0,0,0-1.2h-1.3V12H53.2a1.25,1.25,0,0,1,1.249,1.249v6.042H22.942Zm-3.718,8.082V16.091h2.526v5.236ZM55.9,26.688a3.861,3.861,0,0,1,1.076,2.68V40.736A1.367,1.367,0,0,1,55.61,42.1H21.831a1.367,1.367,0,0,1-1.365-1.365V29.368a3.861,3.861,0,0,1,1.076-2.68,5.055,5.055,0,0,0,1.283-2.39H29.33c.82,2.056,5.223,3.175,9.39,3.175s8.57-1.12,9.39-3.175h6.506A5.052,5.052,0,0,0,55.9,26.688Zm2.318-5.362H55.692V16.091h2.526Z" fill="#fff"/>
    <path id="Path_24907" data-name="Path 24907" d="M78.041,288.155a1.9,1.9,0,1,0-1.9-1.9A1.9,1.9,0,0,0,78.041,288.155Zm0-2.6a.7.7,0,1,1-.7.7A.7.7,0,0,1,78.041,285.558Z" transform="translate(-52.307 -255.919)" fill="#fff"/>
    <path id="Path_24908" data-name="Path 24908" d="M120.194,288.155a1.9,1.9,0,1,0-1.9-1.9A1.9,1.9,0,0,0,120.194,288.155Zm0-2.6a.7.7,0,1,1-.7.7A.7.7,0,0,1,120.194,285.558Z" transform="translate(-90.244 -255.919)" fill="#fff"/>
    <path id="Path_24909" data-name="Path 24909" d="M162.347,288.155a1.9,1.9,0,1,0-1.9-1.9A1.9,1.9,0,0,0,162.347,288.155Zm0-2.6a.7.7,0,1,1-.7.7A.7.7,0,0,1,162.347,285.558Z" transform="translate(-128.182 -255.919)" fill="#fff"/>
    <path id="Path_24910" data-name="Path 24910" d="M204.5,288.155a1.9,1.9,0,1,0-1.9-1.9A1.9,1.9,0,0,0,204.5,288.155Zm0-2.6a.7.7,0,1,1-.7.7A.7.7,0,0,1,204.5,285.558Z" transform="translate(-166.121 -255.919)" fill="#fff"/>
    <path id="Path_24911" data-name="Path 24911" d="M246.655,288.155a1.9,1.9,0,1,0-1.9-1.9A1.9,1.9,0,0,0,246.655,288.155Zm0-2.6a.7.7,0,1,1-.7.7A.7.7,0,0,1,246.655,285.558Z" transform="translate(-204.058 -255.919)" fill="#fff"/>
    <path id="Path_24912" data-name="Path 24912" d="M288.808,288.155a1.9,1.9,0,1,0-1.9-1.9A1.9,1.9,0,0,0,288.808,288.155Zm0-2.6a.7.7,0,1,1-.7.7A.7.7,0,0,1,288.808,285.558Z" transform="translate(-241.995 -255.919)" fill="#fff"/>
    <path id="Path_24913" data-name="Path 24913" d="M330.963,288.155a1.9,1.9,0,1,0-1.9-1.9A1.9,1.9,0,0,0,330.963,288.155Zm0-2.6a.7.7,0,1,1-.7.7A.7.7,0,0,1,330.963,285.558Z" transform="translate(-279.933 -255.919)" fill="#fff"/>
    <path id="Path_24914" data-name="Path 24914" d="M78.041,370.608a1.9,1.9,0,1,0,1.9,1.9A1.9,1.9,0,0,0,78.041,370.608Zm0,2.6a.7.7,0,1,1,.7-.7A.7.7,0,0,1,78.041,373.2Z" transform="translate(-52.307 -333.543)" fill="#fff"/>
    <path id="Path_24915" data-name="Path 24915" d="M120.194,370.608a1.9,1.9,0,1,0,1.9,1.9A1.9,1.9,0,0,0,120.194,370.608Zm0,2.6a.7.7,0,1,1,.7-.7A.7.7,0,0,1,120.194,373.2Z" transform="translate(-90.244 -333.543)" fill="#fff"/>
    <path id="Path_24916" data-name="Path 24916" d="M170.779,369.945h-8.432a1.951,1.951,0,0,0,0,3.9h0l8.431-.035a1.933,1.933,0,0,0,0-3.865Zm0,2.647-8.431.017a.732.732,0,0,1,0-1.463h8.432a.725.725,0,0,1,.7.731A.716.716,0,0,1,170.778,372.592Z" transform="translate(-128.182 -332.946)" fill="#fff"/>
    <path id="Path_24917" data-name="Path 24917" d="M288.808,370.608a1.9,1.9,0,1,0,1.9,1.9A1.9,1.9,0,0,0,288.808,370.608Zm0,2.6a.7.7,0,1,1,.7-.7A.7.7,0,0,1,288.808,373.2Z" transform="translate(-241.995 -333.543)" fill="#fff"/>
    <path id="Path_24918" data-name="Path 24918" d="M330.963,370.608a1.9,1.9,0,1,0,1.9,1.9A1.9,1.9,0,0,0,330.963,370.608Zm0,2.6a.7.7,0,1,1,.7-.7A.7.7,0,0,1,330.963,373.2Z" transform="translate(-279.933 -333.543)" fill="#fff"/>
    <path id="Path_24919" data-name="Path 24919" d="M61.877,329.317a1.9,1.9,0,1,0-1.9,1.9A1.9,1.9,0,0,0,61.877,329.317Zm-2.6,0a.7.7,0,1,1,.7.7A.7.7,0,0,1,59.28,329.317Z" transform="translate(-36.051 -294.672)" fill="#fff"/>
    <path id="Path_24920" data-name="Path 24920" d="M102.132,327.418a1.9,1.9,0,1,0,1.9,1.9A1.9,1.9,0,0,0,102.132,327.418Zm0,2.6a.7.7,0,1,1,.7-.7A.7.7,0,0,1,102.132,330.015Z" transform="translate(-73.989 -294.672)" fill="#fff"/>
    <path id="Path_24921" data-name="Path 24921" d="M144.285,327.418a1.9,1.9,0,1,0,1.9,1.9A1.9,1.9,0,0,0,144.285,327.418Zm0,2.6a.7.7,0,1,1,.7-.7A.7.7,0,0,1,144.285,330.015Z" transform="translate(-111.926 -294.672)" fill="#fff"/>
    <path id="Path_24922" data-name="Path 24922" d="M186.438,327.418a1.9,1.9,0,1,0,1.9,1.9A1.9,1.9,0,0,0,186.438,327.418Zm0,2.6a.7.7,0,1,1,.7-.7A.7.7,0,0,1,186.438,330.015Z" transform="translate(-149.863 -294.672)" fill="#fff"/>
    <path id="Path_24923" data-name="Path 24923" d="M228.593,327.418a1.9,1.9,0,1,0,1.9,1.9A1.9,1.9,0,0,0,228.593,327.418Zm0,2.6a.7.7,0,1,1,.7-.7A.7.7,0,0,1,228.593,330.015Z" transform="translate(-187.801 -294.672)" fill="#fff"/>
    <path id="Path_24924" data-name="Path 24924" d="M270.746,327.418a1.9,1.9,0,1,0,1.9,1.9A1.9,1.9,0,0,0,270.746,327.418Zm0,2.6a.7.7,0,1,1,.7-.7A.7.7,0,0,1,270.746,330.015Z" transform="translate(-225.739 -294.672)" fill="#fff"/>
    <path id="Path_24925" data-name="Path 24925" d="M313.539,327.418a1.9,1.9,0,1,0,1.9,1.9A1.9,1.9,0,0,0,313.539,327.418Zm0,2.6a.7.7,0,1,1,.7-.7A.7.7,0,0,1,313.539,330.015Z" transform="translate(-264.252 -294.672)" fill="#fff"/>
    <path id="Path_24926" data-name="Path 24926" d="M355.8,327.418a1.9,1.9,0,1,0,1.9,1.9A1.9,1.9,0,0,0,355.8,327.418Zm0,2.6a.7.7,0,1,1,.7-.7A.7.7,0,0,1,355.8,330.015Z" transform="translate(-302.286 -294.672)" fill="#fff"/>
    <rect id="Rectangle_10136" data-name="Rectangle 10136" width="7.401" height="1.2" transform="translate(34.92 2.695)" fill="#fff"/>
    <rect id="Rectangle_10137" data-name="Rectangle 10137" width="4.601" height="1.2" transform="translate(42.321 6.395)" fill="#fff"/>
    <rect id="Rectangle_10138" data-name="Rectangle 10138" width="4.601" height="1.2" transform="translate(35.62 6.395)" fill="#fff"/>
    <rect id="Rectangle_10139" data-name="Rectangle 10139" width="2" height="1.2" transform="translate(31.52 6.395)" fill="#fff"/>
    <rect id="Rectangle_10140" data-name="Rectangle 10140" width="7.601" height="1.2" transform="translate(39.321 8.996)" fill="#fff"/>
    <rect id="Rectangle_10141" data-name="Rectangle 10141" width="7.301" height="1.2" transform="translate(30.42 8.996)" fill="#fff"/>
    <rect id="Rectangle_10142" data-name="Rectangle 10142" width="4.601" height="1.2" transform="translate(42.321 11.496)" fill="#fff"/>
    <rect id="Rectangle_10143" data-name="Rectangle 10143" width="4.801" height="1.2" transform="translate(35.42 11.496)" fill="#fff"/>
    <rect id="Rectangle_10144" data-name="Rectangle 10144" width="2.9" height="1.2" transform="translate(30.42 11.496)" fill="#fff"/>
    <rect id="Rectangle_10145" data-name="Rectangle 10145" width="1.5" height="1.2" transform="translate(45.422 14.196)" fill="#fff"/>
    <rect id="Rectangle_10146" data-name="Rectangle 10146" width="6.601" height="1.2" transform="translate(37.121 14.196)" fill="#fff"/>
    <rect id="Rectangle_10147" data-name="Rectangle 10147" width="5.101" height="1.2" transform="translate(30.42 14.196)" fill="#fff"/>
  </g>
</svg>
