<svg xmlns="http://www.w3.org/2000/svg" width="50" height="44.989" viewBox="0 0 50 44.989">
  <g id="online-test-svgrepo-com" transform="translate(-7.33 -9.82)">
    <path id="Rectangle_10137" data-name="Rectangle 10137" d="M2.575-1H45.425A3.58,3.58,0,0,1,49,2.575V32.385a3.58,3.58,0,0,1-3.575,3.575H2.575A3.58,3.58,0,0,1-1,32.385V2.575A3.58,3.58,0,0,1,2.575-1ZM45.425,33.592a1.209,1.209,0,0,0,1.208-1.208V2.575a1.209,1.209,0,0,0-1.208-1.208H2.575A1.209,1.209,0,0,0,1.368,2.575V32.385a1.209,1.209,0,0,0,1.208,1.208Z" transform="translate(8.33 10.82)" fill="#fff"/>
    <path id="Line_152" data-name="Line 152" d="M47.632,1.368H0V-1H47.632Z" transform="translate(8.514 38.832)" fill="#fff"/>
    <path id="Path_24910" data-name="Path 24910" d="M23.63,54.356l-1-2.145a5.552,5.552,0,0,0,2.942-6.629l2.264-.7a7.9,7.9,0,0,1-4.2,9.469Z" transform="translate(0.197 0.342)" fill="#fff"/>
    <path id="Path_24911" data-name="Path 24911" d="M41.547,54.357a7.885,7.885,0,0,1-4.2-9.472l2.263.7a5.539,5.539,0,0,0,2.941,6.627Z" transform="translate(0.183 0.342)" fill="#fff"/>
    <path id="Line_153" data-name="Line 153" d="M29.363,1.368H.184A1.184,1.184,0,0,1,.184-1H29.363a1.184,1.184,0,0,1,0,2.368Z" transform="translate(17.557 53.441)" fill="#fff"/>
    <path id="Path_24912" data-name="Path 24912" d="M20.107,22.992l-3.881-2.717,1.358-1.94L19.539,19.7l2.931-4.123,1.93,1.372Z" transform="translate(0.131 0.11)" fill="#fff"/>
    <path id="Path_24913" data-name="Path 24913" d="M19.678,32.781l-3.871-2.705,1.357-1.941,1.945,1.36,2.932-4.124,1.93,1.372Z" transform="translate(0.128 0.171)" fill="#fff"/>
    <path id="Line_154" data-name="Line 154" d="M20.948,1.368H0V-1H20.948Z" transform="translate(28.909 19.533)" fill="#fff"/>
    <path id="Line_155" data-name="Line 155" d="M20.948,1.368H0V-1H20.948Z" transform="translate(28.909 29.776)" fill="#fff"/>
  </g>
</svg>
