<?xml version="1.0" encoding="utf-8"?>
<!-- Generator: Adobe Illustrator 27.0.0, SVG Export Plug-In . SVG Version: 6.00 Build 0)  -->
<svg version="1.1" id="Layer_1" xmlns="http://www.w3.org/2000/svg" xmlns:xlink="http://www.w3.org/1999/xlink" x="0px" y="0px"
	 viewBox="0 0 10 10" style="enable-background:new 0 0 10 10;" xml:space="preserve">
<style type="text/css">
	.st0{fill:#20B2AA;}
</style>
<path id="Icon_ionic-ios-arrow-dropright-circle" class="st0" d="M0,5c0,2.8,2.2,5,5,5s5-2.2,5-5S7.8,0,5,0S0,2.2,0,5z M5.9,5
	l-2-1.9c-0.2-0.2-0.2-0.5,0-0.7c0.2-0.2,0.5-0.2,0.6,0l2.3,2.3C7,4.9,7,5.2,6.9,5.3L4.6,7.6C4.4,7.8,4.1,7.8,4,7.6
	C3.8,7.4,3.8,7.1,4,6.9L5.9,5z"/>
</svg>
