<?xml version="1.0" encoding="utf-8"?>
<!-- Generator: Adobe Illustrator 27.0.0, SVG Export Plug-In . SVG Version: 6.00 Build 0)  -->
<svg version="1.1" id="Layer_1" xmlns="http://www.w3.org/2000/svg" xmlns:xlink="http://www.w3.org/1999/xlink" x="0px" y="0px"
	 viewBox="0 0 20 13" style="enable-background:new 0 0 20 13;" xml:space="preserve">
<style type="text/css">
	.st0{fill:#20B2AA;}
</style>
<path id="Icon_ionic-ios-arrow-round-forward" class="st0" d="M12.8,0.14c-0.4,0.4-0.4,0.9,0,1.3l4.2,4.2H0.9
	c-0.5,0-0.9,0.4-0.9,0.9s0.4,0.9,0.9,0.9H17l-4.2,4.2c-0.3,0.4-0.3,0.9,0,1.3c0.4,0.3,0.9,0.3,1.3,0l5.7-5.8l0,0
	c0.1-0.1,0.1-0.2,0.2-0.3c0-0.1,0-0.2,0-0.3c0-0.2-0.1-0.5-0.3-0.6L14,0.14C13.7-0.26,13.1-0.26,12.8,0.14
	C12.8,0.04,12.8,0.14,12.8,0.14z"/>
</svg>
