<?xml version="1.0" encoding="utf-8"?>
<!-- Generator: Adobe Illustrator 27.0.0, SVG Export Plug-In . SVG Version: 6.00 Build 0)  -->
<svg version="1.1" id="Layer_1" xmlns="http://www.w3.org/2000/svg" xmlns:xlink="http://www.w3.org/1999/xlink" x="0px" y="0px"
	 viewBox="0 0 324.4 308.5" style="enable-background:new 0 0 324.4 308.5;" xml:space="preserve">
<style type="text/css">
	.st0{clip-path:url(#SVGID_00000000190961966433901310000011431141315009535392_);}
	.st1{fill:#B5B5B5;}
	.st2{fill:#20B2AA;}
</style>
<g id="Group_11086" transform="translate(0 308.487) rotate(-90)">
	<g>
		<defs>
			<rect id="SVGID_1_" x="-7.9" y="7.9" width="324.4" height="308.5"/>
		</defs>
		<clipPath id="SVGID_00000108308591720284846310000010289732936001570215_">
			<use xlink:href="#SVGID_1_"  style="overflow:visible;"/>
		</clipPath>
		
			<g id="Group_11085" transform="translate(0)" style="clip-path:url(#SVGID_00000108308591720284846310000010289732936001570215_);">
			<path id="Path_25328" class="st1" d="M95.5,274.6c-0.5,0-0.9-0.2-1.2-0.5l-12.6-12.6c-0.7-0.7-0.7-1.8,0-2.5
				c0.7-0.7,1.8-0.7,2.5,0l0,0l12.6,12.6c0.7,0.7,0.7,1.8,0,2.5C96.4,274.4,96,274.6,95.5,274.6"/>
			<path id="Path_25329" class="st1" d="M62.9,242c-0.5,0-0.9-0.2-1.2-0.5l-23.1-23.1c-0.7-0.7-0.7-1.8,0-2.5c0.7-0.7,1.8-0.7,2.5,0
				L64.1,239c0.7,0.7,0.7,1.8,0,2.5C63.8,241.8,63.4,242,62.9,242"/>
			<path id="Path_25330" class="st1" d="M165.9,308.6c-0.5,0-0.9-0.2-1.2-0.5l-87-87c-0.7-0.7-0.7-1.8-0.1-2.5
				c0.7-0.7,1.8-0.7,2.5-0.1c0,0,0,0,0.1,0.1l87,87c0.7,0.7,0.7,1.8,0,2.5C166.8,308.5,166.4,308.6,165.9,308.6"/>
			<path id="Path_25331" class="st1" d="M52.2,195c-0.5,0-0.9-0.2-1.2-0.5l-17.6-17.6c-0.7-0.7-0.7-1.8,0-2.5c0.7-0.7,1.8-0.7,2.5,0
				L53.5,192c0.7,0.7,0.7,1.8,0,2.5C53.1,194.8,52.7,195,52.2,195"/>
			<path id="Path_25332" class="st2" d="M218,324.4c-0.5,0-0.9-0.2-1.2-0.5l-76.5-76.5c-0.7-0.7-0.7-1.8,0-2.5s1.8-0.7,2.5,0
				l76.5,76.5c0.7,0.7,0.7,1.8,0,2.5C218.9,324.2,218.4,324.4,218,324.4"/>
			<path id="Path_25333" class="st2" d="M107.6,214c-0.5,0-0.9-0.2-1.2-0.5l-81.6-81.6c-0.7-0.7-0.7-1.8,0-2.5s1.8-0.7,2.5,0l0,0
				l81.6,81.6c0.7,0.7,0.7,1.8,0,2.5C108.5,213.8,108,214,107.6,214"/>
			<path id="Path_25334" class="st1" d="M225,295.1c-0.5,0-0.9-0.2-1.2-0.5L88.7,159.5c-0.7-0.7-0.7-1.8,0-2.5
				c0.7-0.7,1.8-0.7,2.5,0l0,0l135.1,135.1c0.7,0.7,0.7,1.8,0,2.5C225.9,294.9,225.5,295.1,225,295.1"/>
			<path id="Path_25335" class="st1" d="M62.7,132.7c-0.5,0-0.9-0.2-1.2-0.5l-28.6-28.6c-0.7-0.7-0.7-1.8,0-2.5s1.8-0.7,2.5,0
				l28.6,28.6c0.7,0.7,0.7,1.8,0,2.5C63.6,132.5,63.2,132.7,62.7,132.7"/>
			<path id="Path_25336" class="st1" d="M234,267.6c-0.5,0-0.9-0.2-1.2-0.5l-32.5-32.5c-0.7-0.7-0.7-1.8,0-2.5
				c0.7-0.7,1.8-0.7,2.5,0l32.5,32.5c0.7,0.7,0.7,1.8,0,2.5C234.9,267.4,234.4,267.6,234,267.6"/>
			<path id="Path_25337" class="st1" d="M167.3,201c-0.5,0-0.9-0.2-1.2-0.5L0.5,34.9c-0.7-0.7-0.7-1.8,0-2.5s1.8-0.7,2.5,0
				L168.6,198c0.7,0.7,0.7,1.8,0,2.5C168.3,200.8,167.8,201,167.3,201"/>
			<path id="Path_25338" class="st2" d="M296.3,293.7c-0.5,0-0.9-0.2-1.2-0.5L133.3,131.4c-0.7-0.7-0.7-1.8,0-2.5
				c0.7-0.7,1.8-0.7,2.5,0l0,0l161.8,161.8c0.7,0.7,0.7,1.8,0,2.5C297.2,293.5,296.8,293.7,296.3,293.7"/>
			<path id="Path_25339" class="st2" d="M100.7,98c-0.5,0-0.9-0.2-1.2-0.5L61.9,59.9c-0.7-0.7-0.7-1.8,0-2.5c0.7-0.7,1.8-0.7,2.5,0
				l0,0L101.9,95c0.7,0.7,0.7,1.8,0,2.5C101.6,97.8,101.2,98,100.7,98"/>
			<path id="Path_25340" class="st1" d="M270.5,231.4c-0.5,0-0.9-0.2-1.2-0.5L164.7,126.4c-0.7-0.7-0.7-1.8,0-2.5
				c0.7-0.7,1.8-0.7,2.5,0l104.5,104.5c0.7,0.7,0.7,1.8,0,2.5C271.4,231.3,270.9,231.4,270.5,231.4"/>
			<path id="Path_25341" class="st1" d="M136.5,97.5c-0.5,0-0.9-0.2-1.2-0.5L58,19.7c-0.7-0.7-0.7-1.8,0-2.5c0.7-0.7,1.8-0.7,2.5,0
				l77.2,77.2c0.7,0.7,0.7,1.8,0,2.5C137.4,97.3,137,97.5,136.5,97.5"/>
			<path id="Path_25342" class="st2" d="M306.7,231.4c-0.5,0-0.9-0.2-1.2-0.5l-54.6-54.6c-0.7-0.7-0.6-1.8,0.1-2.5
				c0.7-0.6,1.7-0.6,2.4,0l54.6,54.6c0.7,0.7,0.7,1.8,0,2.5C307.6,231.2,307.2,231.4,306.7,231.4"/>
			<path id="Path_25343" class="st2" d="M212.5,137.1c-0.5,0-0.9-0.2-1.2-0.5l-106-106c-0.7-0.7-0.7-1.8,0-2.5s1.8-0.7,2.5,0
				l106,106c0.7,0.7,0.7,1.8,0,2.5C213.4,136.9,213,137.1,212.5,137.1"/>
			<path id="Path_25344" class="st1" d="M273,161.3c-0.5,0-0.9-0.2-1.2-0.5L198,87.1c-0.7-0.7-0.7-1.8,0-2.5c0.7-0.7,1.8-0.7,2.5,0
				c0,0,0,0,0,0l73.7,73.7c0.7,0.7,0.7,1.8,0,2.5C273.9,161.1,273.5,161.3,273,161.3"/>
			<path id="Path_25345" class="st1" d="M170.4,58.7c-0.5,0-0.9-0.2-1.2-0.5L114,3c-0.7-0.7-0.7-1.8,0-2.5s1.8-0.7,2.5,0l55.1,55.1
				c0.7,0.7,0.7,1.8,0,2.5C171.3,58.5,170.8,58.7,170.4,58.7"/>
			<path id="Path_25346" class="st2" d="M293.5,145.4c-0.5,0-0.9-0.2-1.2-0.5l-28.7-28.7c-0.7-0.7-0.6-1.8,0.1-2.5
				c0.7-0.6,1.7-0.6,2.4,0l28.7,28.7c0.7,0.7,0.7,1.8,0,2.5C294.4,145.3,294,145.4,293.5,145.4"/>
			<path id="Path_25347" class="st2" d="M232.1,84c-0.5,0-0.9-0.2-1.2-0.5l-72.7-72.7c-0.7-0.7-0.7-1.8,0-2.5s1.8-0.7,2.5,0
				L233.3,81c0.7,0.7,0.7,1.8,0,2.5C233,83.8,232.5,84,232.1,84"/>
			<path id="Path_25348" class="st1" d="M267.5,83.1c-0.5,0-0.9-0.2-1.2-0.5L248.7,65c-0.7-0.7-0.7-1.8,0-2.5c0.7-0.7,1.8-0.7,2.5,0
				l17.6,17.6c0.7,0.7,0.7,1.8,0,2.5C268.4,82.9,268,83.1,267.5,83.1"/>
			<path id="Path_25349" class="st1" d="M231.1,46.7c-0.5,0-0.9-0.2-1.2-0.5L217.7,34c-0.7-0.7-0.7-1.8,0-2.5c0.7-0.7,1.8-0.7,2.5,0
				l12.2,12.2c0.7,0.7,0.7,1.8,0,2.5C232,46.5,231.6,46.7,231.1,46.7"/>
		</g>
	</g>
</g>
</svg>
