<svg xmlns="http://www.w3.org/2000/svg" width="12" height="11.999" viewBox="0 0 12 11.999">
  <path id="Icon_ionic-ios-call" data-name="Icon ionic-ios-call" d="M16.143,13.9a10.079,10.079,0,0,0-2.105-1.409c-.631-.3-.862-.3-1.309.025-.372.269-.612.519-1.04.425A6.205,6.205,0,0,1,9.6,11.393,6.161,6.161,0,0,1,8.053,9.3c-.091-.431.159-.669.425-1.04.322-.447.331-.678.025-1.309A9.88,9.88,0,0,0,7.093,4.848c-.459-.459-.562-.359-.815-.269a4.64,4.64,0,0,0-.747.4,2.252,2.252,0,0,0-.9.947c-.178.384-.384,1.1.665,2.968a16.559,16.559,0,0,0,2.911,3.883h0l0,0,0,0h0A16.624,16.624,0,0,0,12.1,15.691c1.868,1.05,2.583.843,2.968.665a2.214,2.214,0,0,0,.947-.9,4.64,4.64,0,0,0,.4-.747C16.5,14.46,16.606,14.357,16.143,13.9Z" transform="translate(-4.49 -4.503)" fill="#fff"/>
</svg>
