<svg xmlns="http://www.w3.org/2000/svg" width="50.186" height="49" viewBox="0 0 50.186 49">
  <g id="roll_brush" data-name="roll brush" transform="translate(-0.46 0.05)">
    <path id="Rectangle_10154" data-name="Rectangle 10154" d="M-1.5-1.5H18.221V18.221H-1.5Zm16.721,3H1.5V15.221H15.221Z" transform="translate(17.181 16.1)" fill="#020202"/>
    <path id="Line_152" data-name="Line 152" d="M4.186,1.5H0v-3H4.186Z" transform="translate(0.46 7.729)" fill="#020202"/>
    <path id="Line_153" data-name="Line 153" d="M4.186,1.5H0v-3H4.186Z" transform="translate(0.46 16.1)" fill="#020202"/>
    <path id="Line_154" data-name="Line 154" d="M4.186,1.5H0v-3H4.186Z" transform="translate(0.46 24.45)" fill="#020202"/>
    <path id="Line_155" data-name="Line 155" d="M4.186,1.5H0v-3H4.186Z" transform="translate(6.739 1.45)" fill="#020202"/>
    <path id="Line_156" data-name="Line 156" d="M4.186,1.5H0v-3H4.186Z" transform="translate(0.46 32.822)" fill="#020202"/>
    <path id="Line_157" data-name="Line 157" d="M4.186,1.5H0v-3H4.186Z" transform="translate(46.46 16.1)" fill="#020202"/>
    <path id="Line_158" data-name="Line 158" d="M4.186,1.5H0v-3H4.186Z" transform="translate(38.088 16.1)" fill="#020202"/>
    <path id="Line_159" data-name="Line 159" d="M4.186,1.5H0v-3H4.186Z" transform="translate(46.46 24.45)" fill="#020202"/>
    <path id="Line_160" data-name="Line 160" d="M4.186,1.5H0v-3H4.186Z" transform="translate(46.46 32.822)" fill="#020202"/>
    <path id="Line_161" data-name="Line 161" d="M4.186,1.5H0v-3H4.186Z" transform="translate(46.46 41.193)" fill="#020202"/>
    <path id="Line_162" data-name="Line 162" d="M4.186,1.5H0v-3H4.186Z" transform="translate(46.46 47.45)" fill="#020202"/>
    <path id="Line_163" data-name="Line 163" d="M4.186,1.5H0v-3H4.186Z" transform="translate(8.832 32.822)" fill="#020202"/>
    <path id="Line_164" data-name="Line 164" d="M4.186,1.5H0v-3H4.186Z" transform="translate(0.46 1.45)" fill="#020202"/>
    <path id="Line_165" data-name="Line 165" d="M4.186,1.5H0v-3H4.186Z" transform="translate(15.088 1.45)" fill="#020202"/>
    <path id="Line_166" data-name="Line 166" d="M4.186,1.5H0v-3H4.186Z" transform="translate(23.46 1.45)" fill="#020202"/>
    <path id="Line_167" data-name="Line 167" d="M4.186,1.5H0v-3H4.186Z" transform="translate(31.832 1.45)" fill="#020202"/>
    <path id="Line_168" data-name="Line 168" d="M4.186,1.5H0v-3H4.186Z" transform="translate(15.088 47.45)" fill="#020202"/>
    <path id="Line_169" data-name="Line 169" d="M4.186,1.5H0v-3H4.186Z" transform="translate(15.088 39.1)" fill="#020202"/>
    <path id="Line_170" data-name="Line 170" d="M4.186,1.5H0v-3H4.186Z" transform="translate(23.46 47.45)" fill="#020202"/>
    <path id="Line_171" data-name="Line 171" d="M4.186,1.5H0v-3H4.186Z" transform="translate(31.832 47.45)" fill="#020202"/>
    <path id="Line_172" data-name="Line 172" d="M4.186,1.5H0v-3H4.186Z" transform="translate(40.181 47.45)" fill="#020202"/>
    <path id="Line_173" data-name="Line 173" d="M4.186,1.5H0v-3H4.186Z" transform="translate(31.832 9.822)" fill="#020202"/>
  </g>
</svg>
