<svg xmlns="http://www.w3.org/2000/svg" width="45" height="51.923" viewBox="0 0 45 51.923">
  <g id="_3d-design-3d-octahedron-3d-shape-geometric-geometry-octahedron-svgrepo-com" data-name="3d-design-3d-octahedron-3d-shape-geometric-geometry-octahedron-svgrepo-com" transform="translate(-11 -5)">
    <path id="Path_24931" data-name="Path 24931" d="M55.731,18.935,33.808,5.089l-.01,0a.574.574,0,0,0-.108-.048c-.012,0-.023-.011-.035-.014a.562.562,0,0,0-.309,0c-.012,0-.023.01-.035.014a.574.574,0,0,0-.108.048l-.01,0L11.269,18.935a.575.575,0,0,0-.269.488V42.5a.574.574,0,0,0,.013.105c0,.013,0,.026,0,.039a.572.572,0,0,0,.056.138v0c.006.01.015.018.021.028a.567.567,0,0,0,.066.087.561.561,0,0,0,.054.044.574.574,0,0,0,.052.043L33.192,56.834a.577.577,0,0,0,.616,0L55.731,42.988a.533.533,0,0,0,.172-.174c.006-.01.015-.018.021-.028v0a.572.572,0,0,0,.056-.138c0-.014,0-.028.005-.041A.574.574,0,0,0,56,42.5V19.423a.575.575,0,0,0-.269-.488ZM12.154,20h1.154a.574.574,0,0,0,.2-1.114L31.778,7.347,12.154,40.4ZM33.5,55.664,13.571,43.077H25.266a.589.589,0,0,0,.073.215l.6,1.034a.557.557,0,0,0,.775.2.59.59,0,0,0,.2-.8l-.379-.656H40.47l-.379.656a.59.59,0,0,0,.2.8.557.557,0,0,0,.775-.2l.6-1.034a.59.59,0,0,0,.073-.216H53.429ZM12.59,41.923l6.06-10.206.115.2a.557.557,0,0,0,.775.2.59.59,0,0,0,.2-.8l-.421-.729,6.358-10.708A.562.562,0,0,0,26,20h1.154a.577.577,0,0,0,0-1.154h-.862L33.5,6.707l7.208,12.139h-.862a.577.577,0,1,0,0,1.154H41a.562.562,0,0,0,.325-.113l6.358,10.708-.421.729a.59.59,0,0,0,.2.8.557.557,0,0,0,.775-.2l.115-.2,6.06,10.206ZM54.846,40.4,35.222,7.347l18.271,11.54a.574.574,0,0,0,.2,1.114h1.154Z"/>
    <path id="Path_24932" data-name="Path 24932" d="M28.482,55.8a.557.557,0,0,0-.775-.2.59.59,0,0,0-.2.8l.6,1.034a.557.557,0,0,0,.775.2.59.59,0,0,0,.2-.8Z" transform="translate(-6.951 -21.37)"/>
    <path id="Path_24933" data-name="Path 24933" d="M45.055,84.477a.557.557,0,0,0-.775-.2.59.59,0,0,0-.2.8l.6,1.034a.557.557,0,0,0,.775.2.59.59,0,0,0,.2-.8Z" transform="translate(-13.963 -33.505)"/>
    <path id="Path_24934" data-name="Path 24934" d="M16.052,34.285a.557.557,0,0,0-.775-.2.59.59,0,0,0-.2.8l.6,1.034a.557.557,0,0,0,.775.2.59.59,0,0,0,.2-.8Z" transform="translate(-1.692 -12.27)"/>
    <path id="Path_24935" data-name="Path 24935" d="M32.625,62.966a.557.557,0,0,0-.775-.2.59.59,0,0,0-.2.8l.6,1.034a.557.557,0,0,0,.775.2.59.59,0,0,0,.2-.8Z" transform="translate(-8.704 -24.404)"/>
    <path id="Path_24936" data-name="Path 24936" d="M40.912,77.307a.557.557,0,0,0-.775-.2.59.59,0,0,0-.2.8l.6,1.034a.557.557,0,0,0,.775.2.59.59,0,0,0,.2-.8Z" transform="translate(-12.21 -30.471)"/>
    <path id="Path_24937" data-name="Path 24937" d="M20.2,41.455a.557.557,0,0,0-.775-.2.59.59,0,0,0-.2.8l.6,1.034a.557.557,0,0,0,.775.2.59.59,0,0,0,.2-.8Z" transform="translate(-3.445 -15.303)"/>
    <path id="Path_24938" data-name="Path 24938" d="M71.025,55.593a.557.557,0,0,0-.775.2l-.6,1.034a.59.59,0,0,0,.2.8.557.557,0,0,0,.775-.2l.6-1.034a.59.59,0,0,0-.2-.8Z" transform="translate(-24.781 -21.37)"/>
    <path id="Path_24939" data-name="Path 24939" d="M54.452,84.274a.557.557,0,0,0-.775.2l-.6,1.034a.59.59,0,0,0,.2.8.557.557,0,0,0,.775-.2l.6-1.034a.59.59,0,0,0-.2-.8Z" transform="translate(-17.769 -33.505)"/>
    <path id="Path_24940" data-name="Path 24940" d="M79.312,41.252a.557.557,0,0,0-.775.2l-.6,1.034a.59.59,0,0,0,.2.8.557.557,0,0,0,.775-.2l.6-1.034a.59.59,0,0,0-.2-.8Z" transform="translate(-28.287 -15.303)"/>
    <path id="Path_24941" data-name="Path 24941" d="M83.455,34.082a.557.557,0,0,0-.775.2l-.6,1.034a.59.59,0,0,0,.2.8.557.557,0,0,0,.775-.2l.6-1.034A.59.59,0,0,0,83.455,34.082Z" transform="translate(-30.039 -12.27)"/>
    <path id="Path_24942" data-name="Path 24942" d="M58.6,77.1a.557.557,0,0,0-.775.2l-.6,1.034a.59.59,0,0,0,.2.8.557.557,0,0,0,.775-.2l.6-1.034A.59.59,0,0,0,58.6,77.1Z" transform="translate(-19.522 -30.471)"/>
    <path id="Path_24943" data-name="Path 24943" d="M66.882,62.763a.557.557,0,0,0-.775.2L65.509,64a.59.59,0,0,0,.2.8.557.557,0,0,0,.775-.2l.6-1.034a.59.59,0,0,0-.2-.8Z" transform="translate(-23.028 -24.404)"/>
    <path id="Path_24944" data-name="Path 24944" d="M21.731,29H20.577a.577.577,0,1,0,0,1.154h1.154a.577.577,0,0,0,0-1.154Z" transform="translate(-3.808 -10.154)"/>
    <path id="Path_24945" data-name="Path 24945" d="M53.731,29H52.577a.577.577,0,0,0,0,1.154h1.154a.577.577,0,1,0,0-1.154Z" transform="translate(-17.346 -10.154)"/>
    <path id="Path_24946" data-name="Path 24946" d="M78.308,29.577A.577.577,0,0,0,77.731,29H76.577a.577.577,0,0,0,0,1.154h1.154A.577.577,0,0,0,78.308,29.577Z" transform="translate(-27.5 -10.154)"/>
    <path id="Path_24947" data-name="Path 24947" d="M29.731,29H28.577a.577.577,0,1,0,0,1.154h1.154a.577.577,0,1,0,0-1.154Z" transform="translate(-7.192 -10.154)"/>
    <path id="Path_24948" data-name="Path 24948" d="M45.731,29H44.577a.577.577,0,1,0,0,1.154h1.154a.577.577,0,1,0,0-1.154Z" transform="translate(-13.962 -10.154)"/>
    <path id="Path_24949" data-name="Path 24949" d="M69.731,29H68.577a.577.577,0,0,0,0,1.154h1.154a.577.577,0,1,0,0-1.154Z" transform="translate(-24.115 -10.154)"/>
  </g>
</svg>
