<svg xmlns="http://www.w3.org/2000/svg" width="44.994" height="45" viewBox="0 0 44.994 45">
  <g id="_3d-design-3d-shape-3d-trapezoid-geometric-geometry-shape-svgrepo-com" data-name="3d-design-3d-shape-3d-trapezoid-geometric-geometry-shape-svgrepo-com" transform="translate(-5.012 -5)">
    <path id="Path_24927" data-name="Path 24927" d="M49,13.5v1a.5.5,0,1,0,1,0v-1a.5.5,0,1,0-1,0Zm0-4v1a.5.5,0,1,0,1,0v-1a.5.5,0,1,0-1,0Z" transform="translate(-21.994 -2)"/>
    <path id="Path_24928" data-name="Path 24928" d="M49.991,42.38l-8-32.5c0-.006-.006-.01-.007-.015a.5.5,0,0,0-.077-.162c0-.005-.01-.009-.014-.014a.4.4,0,0,0-.168-.131.485.485,0,0,0-.067-.034l-14-4.5a.5.5,0,0,0-.306,0l-14,4.5-.12.061a.494.494,0,0,0-.115.1c0,.005-.01.008-.014.014a.5.5,0,0,0-.077.162c0,.005-.006.009-.007.015l-8,32.5a.474.474,0,0,0,0,.083.5.5,0,0,0,0,.1.48.48,0,0,0,.027.092.3.3,0,0,0,.092.163.484.484,0,0,0,.064.07.5.5,0,0,0,.087.048.472.472,0,0,0,.072.04l22,7a.5.5,0,0,0,.3,0l22-7A.5.5,0,0,0,49.991,42.38ZM27.506,6.025,39.872,10,27.506,13.975,15.14,10ZM13.863,10.64l13.143,4.224V48.816L6.1,42.165ZM28.006,48.816V14.864L41.148,10.64l7.76,31.525Z"/>
    <path id="Path_24929" data-name="Path 24929" d="M26.52,67.353l.953-.32a.534.534,0,0,0,.325-.663.5.5,0,0,0-.628-.343l-.953.32a.534.534,0,0,0-.325.663.5.5,0,0,0,.628.343Zm-3.812,1.281.953-.32a.534.534,0,0,0,.325-.663.5.5,0,0,0-.628-.343l-.953.32a.534.534,0,0,0-.325.663.5.5,0,0,0,.628.343ZM18.9,69.915l.953-.32a.534.534,0,0,0,.325-.663.5.5,0,0,0-.628-.343l-.953.32a.534.534,0,0,0-.325.663.5.5,0,0,0,.628.343ZM15.085,71.2l.953-.32a.534.534,0,0,0,.325-.663.5.5,0,0,0-.628-.343l-.953.32a.534.534,0,0,0-.325.663.5.5,0,0,0,.628.343Zm-3.812,1.281.953-.32a.534.534,0,0,0,.325-.663.5.5,0,0,0-.628-.343l-.953.32a.534.534,0,0,0-.325.663.5.5,0,0,0,.628.343Z" transform="translate(-2.804 -30.502)"/>
    <path id="Path_24930" data-name="Path 24930" d="M56.58,66.347l-.953-.32A.5.5,0,0,0,55,66.37a.534.534,0,0,0,.325.663l.953.32a.5.5,0,0,0,.628-.343A.534.534,0,0,0,56.58,66.347Zm3.812,1.281-.953-.32a.5.5,0,0,0-.628.343.534.534,0,0,0,.325.663l.953.32a.5.5,0,0,0,.628-.343A.534.534,0,0,0,60.392,67.628ZM64.2,68.909l-.953-.32a.5.5,0,0,0-.628.343.534.534,0,0,0,.325.663l.953.32a.5.5,0,0,0,.628-.343A.534.534,0,0,0,64.2,68.909Zm3.812,1.281-.953-.32a.5.5,0,0,0-.628.343.534.534,0,0,0,.325.663l.953.32a.5.5,0,0,0,.628-.343.534.534,0,0,0-.325-.663Zm3.812,1.281-.953-.32a.5.5,0,0,0-.628.343.534.534,0,0,0,.325.663l.953.32a.5.5,0,0,0,.628-.343.534.534,0,0,0-.325-.663Z" transform="translate(-24.981 -30.502)"/>
  </g>
</svg>
