<svg xmlns="http://www.w3.org/2000/svg" width="134.806" height="18" viewBox="0 0 134.806 18">
  <g id="Group_11056" data-name="Group 11056" transform="translate(-1000 -5940)">
    <path id="Icon_awesome-star" data-name="Icon awesome-star" d="M9.836.625,7.54,5.279,2.4,6.028a1.125,1.125,0,0,0-.622,1.919L5.5,11.568l-.879,5.115A1.124,1.124,0,0,0,6.25,17.867l4.594-2.415,4.594,2.415a1.125,1.125,0,0,0,1.631-1.185l-.879-5.115,3.716-3.621a1.125,1.125,0,0,0-.622-1.919l-5.136-.749L11.853.625a1.126,1.126,0,0,0-2.018,0Z" transform="translate(998.559 5940.001)" fill="#fb0"/>
    <path id="Icon_awesome-star-2" data-name="Icon awesome-star" d="M9.836.625,7.54,5.279,2.4,6.028a1.125,1.125,0,0,0-.622,1.919L5.5,11.568l-.879,5.115A1.124,1.124,0,0,0,6.25,17.867l4.594-2.415,4.594,2.415a1.125,1.125,0,0,0,1.631-1.185l-.879-5.115,3.716-3.621a1.125,1.125,0,0,0-.622-1.919l-5.136-.749L11.853.625a1.126,1.126,0,0,0-2.018,0Z" transform="translate(1027.559 5940.001)" fill="#fb0"/>
    <path id="Icon_awesome-star-3" data-name="Icon awesome-star" d="M9.836.625,7.54,5.279,2.4,6.028a1.125,1.125,0,0,0-.622,1.919L5.5,11.568l-.879,5.115A1.124,1.124,0,0,0,6.25,17.867l4.594-2.415,4.594,2.415a1.125,1.125,0,0,0,1.631-1.185l-.879-5.115,3.716-3.621a1.125,1.125,0,0,0-.622-1.919l-5.136-.749L11.853.625a1.126,1.126,0,0,0-2.018,0Z" transform="translate(1056.559 5940.001)" fill="#fb0"/>
    <path id="Icon_awesome-star-4" data-name="Icon awesome-star" d="M9.836.625,7.54,5.279,2.4,6.028a1.125,1.125,0,0,0-.622,1.919L5.5,11.568l-.879,5.115A1.124,1.124,0,0,0,6.25,17.867l4.594-2.415,4.594,2.415a1.125,1.125,0,0,0,1.631-1.185l-.879-5.115,3.716-3.621a1.125,1.125,0,0,0-.622-1.919l-5.136-.749L11.853.625a1.126,1.126,0,0,0-2.018,0Z" transform="translate(1085.559 5940.001)" fill="#fb0"/>
    <path id="Icon_awesome-star-5" data-name="Icon awesome-star" d="M9.836.625,7.54,5.279,2.4,6.028a1.125,1.125,0,0,0-.622,1.919L5.5,11.568l-.879,5.115A1.124,1.124,0,0,0,6.25,17.867l4.594-2.415,4.594,2.415a1.125,1.125,0,0,0,1.631-1.185l-.879-5.115,3.716-3.621a1.125,1.125,0,0,0-.622-1.919l-5.136-.749L11.853.625a1.126,1.126,0,0,0-2.018,0Z" transform="translate(1114.559 5940.001)" fill="#fb0"/>
  </g>
</svg>
