<?xml version="1.0" encoding="utf-8"?>
<!-- Generator: Adobe Illustrator 27.0.0, SVG Export Plug-In . SVG Version: 6.00 Build 0)  -->
<svg version="1.1" id="Layer_1" xmlns="http://www.w3.org/2000/svg" xmlns:xlink="http://www.w3.org/1999/xlink" x="0px" y="0px"
	 viewBox="0 0 273.1 298" style="enable-background:new 0 0 273.1 298;" xml:space="preserve">
<style type="text/css">
	.st0{fill:none;}
	.st1{fill:#20B2AA;}
	.st2{fill:#010101;}
</style>
<rect x="11.6" y="10.4" transform="matrix(0.9962 -8.701806e-02 8.701806e-02 0.9962 -12.4486 12.4439)" class="st0" width="249.8" height="277.3"/>
<path id="Path_25385" class="st1" d="M243.6,128.7c3.8,3.6,9.7,3.4,13.3-0.4c3.6-3.8,3.4-9.7-0.4-13.3c-3.8-3.6-9.7-3.4-13.3,0.4
	C239.7,119.2,239.8,125.1,243.6,128.7C243.6,128.7,243.6,128.7,243.6,128.7"/>
<path id="Path_25386" class="st2" d="M205.8,168.8c3.8,3.6,9.7,3.4,13.3-0.4c3.6-3.8,3.4-9.7-0.4-13.3c-3.8-3.6-9.7-3.4-13.3,0.4
	C201.9,159.2,202,165.2,205.8,168.8C205.8,168.8,205.8,168.8,205.8,168.8"/>
<path id="Path_25387" class="st1" d="M130.2,248.8c3.8,3.6,9.7,3.4,13.3-0.4c3.6-3.8,3.4-9.7-0.4-13.3c-3.8-3.6-9.7-3.4-13.3,0.4
	C126.3,239.3,126.4,245.2,130.2,248.8C130.2,248.8,130.2,248.8,130.2,248.8"/>
<path id="Path_25388" class="st2" d="M92.4,288.8c3.8,3.6,9.7,3.4,13.3-0.4c3.6-3.8,3.4-9.7-0.4-13.3c-3.8-3.6-9.7-3.4-13.3,0.4
	C88.5,279.3,88.6,285.3,92.4,288.8C92.4,288.8,92.4,288.8,92.4,288.8"/>
<path id="Path_25389" class="st1" d="M169.5,134.4c3.8,3.6,9.7,3.4,13.3-0.4s3.4-9.7-0.4-13.3c-3.8-3.6-9.7-3.4-13.3,0.4
	C165.5,124.9,165.7,130.9,169.5,134.4C169.5,134.4,169.5,134.4,169.5,134.4"/>
<path id="Path_25390" class="st1" d="M131.7,174.5c3.8,3.6,9.7,3.4,13.3-0.4c3.6-3.8,3.4-9.7-0.4-13.3c-3.8-3.6-9.7-3.4-13.3,0.4
	C127.7,164.9,127.9,170.9,131.7,174.5C131.7,174.5,131.7,174.5,131.7,174.5"/>
<path id="Path_25391" class="st2" d="M93.9,214.5c3.8,3.6,9.7,3.4,13.3-0.4c3.6-3.8,3.4-9.7-0.4-13.3s-9.7-3.4-13.3,0.4c0,0,0,0,0,0
	C89.9,205,90.1,210.9,93.9,214.5"/>
<path id="Path_25392" class="st2" d="M133.1,100.1c3.8,3.6,9.7,3.4,13.3-0.4c3.6-3.8,3.4-9.7-0.4-13.3c-3.8-3.6-9.7-3.4-13.3,0.4
	C129.2,90.6,129.3,96.5,133.1,100.1C133.1,100.1,133.1,100.1,133.1,100.1"/>
<path id="Path_25393" class="st1" d="M95.3,140.1c3.8,3.6,9.7,3.4,13.3-0.4c3.6-3.8,3.4-9.7-0.4-13.3c-3.8-3.6-9.7-3.4-13.3,0.4
	C91.4,130.6,91.5,136.6,95.3,140.1C95.3,140.1,95.3,140.1,95.3,140.1"/>
<path id="Path_25394" class="st1" d="M57.5,180.2c3.8,3.6,9.7,3.4,13.3-0.4c3.6-3.8,3.4-9.7-0.4-13.3c-3.8-3.6-9.7-3.4-13.3,0.4
	C53.6,170.6,53.7,176.6,57.5,180.2C57.5,180.2,57.5,180.2,57.5,180.2"/>
<path id="Path_25396" class="st2" d="M134.6,25.8c3.8,3.6,9.7,3.4,13.3-0.4c3.6-3.8,3.4-9.7-0.4-13.3c-3.8-3.6-9.7-3.4-13.3,0.4
	C130.6,16.2,130.8,22.2,134.6,25.8C134.6,25.8,134.6,25.8,134.6,25.8"/>
<path id="Path_25397" class="st1" d="M59,105.8c3.8,3.6,9.7,3.4,13.3-0.4c3.6-3.8,3.4-9.7-0.4-13.3c-3.8-3.6-9.7-3.4-13.3,0.4
	C55,96.3,55.2,102.2,59,105.8C59,105.8,59,105.8,59,105.8"/>
<path id="Path_25398" class="st2" d="M21.2,145.9c3.8,3.6,9.7,3.4,13.3-0.4c3.6-3.8,3.4-9.7-0.4-13.3c-3.8-3.6-9.7-3.4-13.3,0.4
	C17.2,136.3,17.4,142.3,21.2,145.9C21.2,145.9,21.2,145.9,21.2,145.9"/>
</svg>
