<?xml version="1.0" encoding="utf-8"?>
<!-- Generator: Adobe Illustrator 27.0.0, SVG Export Plug-In . SVG Version: 6.00 Build 0)  -->
<svg version="1.1" id="Layer_1" xmlns="http://www.w3.org/2000/svg" xmlns:xlink="http://www.w3.org/1999/xlink" x="0px" y="0px"
	 viewBox="0 0 496.7 520.8" style="enable-background:new 0 0 496.7 520.8;" xml:space="preserve">
<style type="text/css">
	.st0{fill:none;}
	.st1{fill:#B5B5B5;}
	.st2{fill:#20B2AA;}
</style>
<rect x="51.5" y="46" transform="matrix(0.9613 -0.2756 0.2756 0.9613 -62.1524 78.5464)" class="st0" width="393.8" height="428.9"/>
<path id="Path_25355" class="st1" d="M204.2,57.3c-1.1,2-3.6,2.7-5.6,1.6c-2-1.1-2.7-3.6-1.6-5.6c1.1-2,3.6-2.7,5.6-1.6
	C204.6,52.8,205.3,55.3,204.2,57.3C204.2,57.3,204.2,57.3,204.2,57.3"/>
<path id="Path_25356" class="st1" d="M260.6,88.5c-1.1,2-3.6,2.7-5.6,1.6c-2-1.1-2.7-3.6-1.6-5.6c1.1-2,3.6-2.7,5.6-1.6c0,0,0,0,0,0
	C260.9,84,261.7,86.5,260.6,88.5"/>
<path id="Path_25357" class="st2" d="M316.9,119.7c-1.1,2-3.6,2.7-5.6,1.6c-2-1.1-2.7-3.6-1.6-5.6c1.1-2,3.6-2.7,5.6-1.6
	C317.3,115.2,318,117.7,316.9,119.7"/>
<path id="Path_25358" class="st1" d="M373.2,150.9c-1.1,2-3.6,2.7-5.6,1.6c-2-1.1-2.7-3.6-1.6-5.6c1.1-2,3.6-2.7,5.6-1.6
	C373.6,146.4,374.3,148.9,373.2,150.9C373.2,150.9,373.2,150.9,373.2,150.9"/>
<path id="Path_25359" class="st1" d="M429.5,182.1c-1.1,2-3.6,2.7-5.6,1.6c-2-1.1-2.7-3.6-1.6-5.6c1.1-2,3.6-2.7,5.6-1.6
	c0,0,0,0,0,0C429.9,177.7,430.6,180.2,429.5,182.1"/>
<path id="Path_25360" class="st1" d="M176.3,107.6c-1.1,2-3.6,2.7-5.6,1.6s-2.7-3.6-1.6-5.6s3.6-2.7,5.6-1.6c0,0,0,0,0,0
	C176.7,103.1,177.4,105.6,176.3,107.6"/>
<path id="Path_25361" class="st2" d="M232.7,138.8c-1.1,2-3.6,2.7-5.6,1.6c-2-1.1-2.7-3.6-1.6-5.6c1.1-2,3.6-2.7,5.6-1.6
	C233,134.3,233.8,136.8,232.7,138.8"/>
<path id="Path_25362" class="st1" d="M289,170c-1.1,2-3.6,2.7-5.6,1.6c-2-1.1-2.7-3.6-1.6-5.6c1.1-2,3.6-2.7,5.6-1.6v0
	C289.4,165.6,290.1,168,289,170C289,170,289,170,289,170"/>
<path id="Path_25363" class="st2" d="M345.3,201.3c-1.1,2-3.6,2.7-5.6,1.6c-2-1.1-2.7-3.6-1.6-5.6c1.1-2,3.6-2.7,5.6-1.6
	C345.7,196.8,346.4,199.3,345.3,201.3C345.3,201.3,345.3,201.3,345.3,201.3"/>
<path id="Path_25364" class="st1" d="M401.6,232.5c-1.1,2-3.6,2.7-5.6,1.6s-2.7-3.6-1.6-5.6c1.1-2,3.6-2.7,5.6-1.6
	C402,228,402.7,230.5,401.6,232.5C401.6,232.5,401.6,232.5,401.6,232.5"/>
<path id="Path_25365" class="st1" d="M148.4,157.9c-1.1,2-3.6,2.7-5.6,1.6c-2-1.1-2.7-3.6-1.6-5.6c1.1-2,3.6-2.7,5.6-1.6
	C148.8,153.4,149.5,155.9,148.4,157.9C148.4,157.9,148.4,157.9,148.4,157.9"/>
<path id="Path_25366" class="st1" d="M204.8,189.1c-1.1,2-3.6,2.7-5.6,1.6c-2-1.1-2.7-3.6-1.6-5.6c1.1-2,3.6-2.7,5.6-1.6
	c0,0,0,0,0,0C205.1,184.7,205.9,187.2,204.8,189.1"/>
<path id="Path_25367" class="st2" d="M261.1,220.4c-1.1,2-3.6,2.7-5.6,1.6c-2-1.1-2.7-3.6-1.6-5.6c1.1-2,3.6-2.7,5.6-1.6
	C261.5,215.9,262.2,218.4,261.1,220.4"/>
<path id="Path_25368" class="st1" d="M317.4,251.6c-1.1,2-3.6,2.7-5.6,1.6c-2-1.1-2.7-3.6-1.6-5.6c1.1-2,3.6-2.7,5.6-1.6
	C317.8,247.1,318.5,249.6,317.4,251.6C317.4,251.6,317.4,251.6,317.4,251.6"/>
<path id="Path_25369" class="st2" d="M373.7,282.8c-1.1,2-3.6,2.7-5.6,1.6c-2-1.1-2.7-3.6-1.6-5.6s3.6-2.7,5.6-1.6c0,0,0,0,0,0
	C374.1,278.3,374.8,280.8,373.7,282.8"/>
<path id="Path_25370" class="st1" d="M120.5,208.3c-1.1,2-3.6,2.7-5.6,1.6c-2-1.1-2.7-3.6-1.6-5.6c1.1-2,3.6-2.7,5.6-1.6
	C120.9,203.8,121.6,206.3,120.5,208.3"/>
<path id="Path_25371" class="st2" d="M176.9,239.5c-1.1,2-3.6,2.7-5.6,1.6c-2-1.1-2.7-3.6-1.6-5.6c1.1-2,3.6-2.7,5.6-1.6
	C177.2,235,178,237.5,176.9,239.5"/>
<path id="Path_25372" class="st1" d="M233.2,270.7c-1.1,2-3.6,2.7-5.6,1.6c-2-1.1-2.7-3.6-1.6-5.6c1.1-2,3.6-2.7,5.6-1.6h0
	C233.6,266.2,234.3,268.7,233.2,270.7C233.2,270.7,233.2,270.7,233.2,270.7"/>
<path id="Path_25373" class="st2" d="M289.5,301.9c-1.1,2-3.6,2.7-5.6,1.6c-2-1.1-2.7-3.6-1.6-5.6c1.1-2,3.6-2.7,5.6-1.6
	c0,0,0,0,0,0C289.9,297.4,290.6,299.9,289.5,301.9"/>
<path id="Path_25374" class="st1" d="M345.8,333.1c-1.1,2-3.6,2.7-5.6,1.6c-2-1.1-2.7-3.6-1.6-5.6c1.1-2,3.6-2.7,5.6-1.6
	C346.2,328.6,346.9,331.1,345.8,333.1"/>
<path id="Path_25375" class="st1" d="M92.7,258.6c-1.1,2-3.6,2.7-5.6,1.6s-2.7-3.6-1.6-5.6c1.1-2,3.6-2.7,5.6-1.6
	C93,254.1,93.7,256.6,92.7,258.6"/>
<path id="Path_25376" class="st1" d="M149,289.8c-1.1,2-3.6,2.7-5.6,1.6c-2-1.1-2.7-3.6-1.6-5.6c1.1-2,3.6-2.7,5.6-1.6
	C149.3,285.3,150.1,287.8,149,289.8C149,289.8,149,289.8,149,289.8"/>
<path id="Path_25377" class="st2" d="M205.3,321c-1.1,2-3.6,2.7-5.6,1.6c-2-1.1-2.7-3.6-1.6-5.6c1.1-2,3.6-2.7,5.6-1.6
	C205.7,316.5,206.4,319,205.3,321"/>
<path id="Path_25378" class="st1" d="M261.6,352.2c-1.1,2-3.6,2.7-5.6,1.6c-2-1.1-2.7-3.6-1.6-5.6c1.1-2,3.6-2.7,5.6-1.6
	c0,0,0,0,0,0C262,347.7,262.7,350.2,261.6,352.2"/>
<path id="Path_25379" class="st2" d="M317.9,383.4c-1.1,2-3.6,2.7-5.6,1.6c-2-1.1-2.7-3.6-1.6-5.6c1.1-2,3.6-2.7,5.6-1.6
	C318.3,379,319,381.5,317.9,383.4C317.9,383.4,317.9,383.4,317.9,383.4"/>
<path id="Path_25380" class="st1" d="M64.8,308.9c-1.1,2-3.6,2.7-5.6,1.6c-2-1.1-2.7-3.6-1.6-5.6c1.1-2,3.6-2.7,5.6-1.6
	C65.1,304.4,65.9,306.9,64.8,308.9C64.8,308.9,64.8,308.9,64.8,308.9"/>
<path id="Path_25381" class="st2" d="M121.1,340.1c-1.1,2-3.6,2.7-5.6,1.6s-2.7-3.6-1.6-5.6c1.1-2,3.6-2.7,5.6-1.6
	C121.5,335.6,122.2,338.1,121.1,340.1"/>
<path id="Path_25382" class="st1" d="M177.4,371.3c-1.1,2-3.6,2.7-5.6,1.6c-2-1.1-2.7-3.6-1.6-5.6s3.6-2.7,5.6-1.6
	C177.8,366.9,178.5,369.4,177.4,371.3C177.4,371.3,177.4,371.3,177.4,371.3"/>
<path id="Path_25383" class="st2" d="M233.7,402.6c-1.1,2-3.6,2.7-5.6,1.6c-2-1.1-2.7-3.6-1.6-5.6c1.1-2,3.6-2.7,5.6-1.6
	C234.1,398.1,234.8,400.6,233.7,402.6"/>
<path id="Path_25384" class="st1" d="M290,433.8c-1.1,2-3.6,2.7-5.6,1.6s-2.7-3.6-1.6-5.6c1.1-2,3.6-2.7,5.6-1.6c0,0,0,0,0,0
	C290.4,429.3,291.1,431.8,290,433.8"/>
</svg>
