<?xml version="1.0" encoding="utf-8"?>
<!-- Generator: Adobe Illustrator 27.0.0, SVG Export Plug-In . SVG Version: 6.00 Build 0)  -->
<svg version="1.1" id="Layer_1" xmlns="http://www.w3.org/2000/svg" xmlns:xlink="http://www.w3.org/1999/xlink" x="0px" y="0px"
	 viewBox="0 0 504.1 545.9" style="enable-background:new 0 0 504.1 545.9;" xml:space="preserve">
<style type="text/css">
	.st0{opacity:0.26;}
	.st1{clip-path:url(#SVGID_00000047777417887715735380000014897727216421158029_);}
	.st2{fill:#B5B5B5;}
	.st3{fill:#20B2AA;}
</style>
<g id="Group_11120" transform="translate(0 16.959) rotate(-2)" class="st0">
	<g>
		<defs>
			
				<rect id="SVGID_1_" x="0" y="0" transform="matrix(0.9994 -3.489950e-02 3.489950e-02 0.9994 -9.087 8.6409)" width="486" height="529.2"/>
		</defs>
		<clipPath id="SVGID_00000178883826876319012530000014578645912666134202_">
			<use xlink:href="#SVGID_1_"  style="overflow:visible;"/>
		</clipPath>
		<g id="Group_11097" style="clip-path:url(#SVGID_00000178883826876319012530000014578645912666134202_);">
			<path id="Path_25355" class="st2" d="M259.7,8.7c-2,2-5.2,2-7.2,0c-2-2-2-5.2,0-7.2c2-2,5.2-2,7.2,0
				C261.7,3.5,261.7,6.7,259.7,8.7"/>
			<path id="Path_25356" class="st2" d="M315.9,64.8c-2,2-5.2,2-7.2,0c-2-2-2-5.2,0-7.2c2-2,5.2-2,7.2,0c0,0,0,0,0,0
				C317.9,59.7,317.9,62.9,315.9,64.8"/>
			<path id="Path_25357" class="st3" d="M372.1,121c-2,2-5.2,2-7.2,0c-2-2-2-5.2,0-7.2c2-2,5.2-2,7.2,0c0,0,0,0,0,0
				C374.1,115.8,374.1,119.1,372.1,121"/>
			<path id="Path_25358" class="st2" d="M428.3,177.2c-2,2-5.2,2-7.2,0c-2-2-2-5.2,0-7.2c2-2,5.2-2,7.2,0
				C430.3,172,430.3,175.2,428.3,177.2"/>
			<path id="Path_25359" class="st2" d="M484.5,233.4c-2,2-5.2,2-7.2,0c-2-2-2-5.2,0-7.2c2-2,5.2-2,7.2,0c0,0,0,0,0,0
				C486.4,228.2,486.4,231.4,484.5,233.4"/>
			<path id="Path_25360" class="st2" d="M209.5,58.9c-2,2-5.2,2-7.2,0c-2-2-2-5.2,0-7.2c2-2,5.2-2,7.2,0c0,0,0,0,0,0
				C211.5,53.7,211.5,56.9,209.5,58.9"/>
			<path id="Path_25361" class="st3" d="M265.7,115.1c-2,2-5.2,2-7.2,0c-2-2-2-5.2,0-7.2s5.2-2,7.2,0c0,0,0,0,0,0
				C267.7,109.9,267.7,113.1,265.7,115.1"/>
			<path id="Path_25362" class="st2" d="M321.9,171.2c-2,2-5.2,2-7.2,0c-2-2-2-5.2,0-7.2c2-2,5.2-2,7.2,0
				C323.9,166.1,323.9,169.3,321.9,171.2C321.9,171.2,321.9,171.2,321.9,171.2"/>
			<path id="Path_25363" class="st3" d="M378.1,227.4c-2,2-5.2,2-7.2,0s-2-5.2,0-7.2c2-2,5.2-2,7.2,0c0,0,0,0,0,0
				C380,222.2,380,225.5,378.1,227.4C378.1,227.4,378.1,227.4,378.1,227.4"/>
			<path id="Path_25364" class="st2" d="M434.3,283.6c-2,2-5.2,2-7.2,0c-2-2-2-5.2,0-7.2c2-2,5.2-2,7.2,0
				C436.2,278.4,436.2,281.6,434.3,283.6"/>
			<path id="Path_25365" class="st2" d="M159.3,109.1c-2,2-5.2,2-7.2,0c-2-2-2-5.2,0-7.2c2-2,5.2-2,7.2,0
				C161.3,103.9,161.3,107.1,159.3,109.1"/>
			<path id="Path_25366" class="st2" d="M215.5,165.3c-2,2-5.2,2-7.2,0c-2-2-2-5.2,0-7.2c2-2,5.2-2,7.2,0c0,0,0,0,0,0
				C217.5,160.1,217.5,163.3,215.5,165.3"/>
			<path id="Path_25367" class="st3" d="M271.7,221.5c-2,2-5.2,2-7.2,0c-2-2-2-5.2,0-7.2s5.2-2,7.2,0c0,0,0,0,0,0
				C273.6,216.3,273.6,219.5,271.7,221.5"/>
			<path id="Path_25368" class="st2" d="M327.9,277.6c-2,2-5.2,2-7.2,0s-2-5.2,0-7.2c2-2,5.2-2,7.2,0
				C329.8,272.5,329.8,275.7,327.9,277.6"/>
			<path id="Path_25369" class="st3" d="M384,333.8c-2,2-5.2,2-7.2,0c-2-2-2-5.2,0-7.2s5.2-2,7.2,0c0,0,0,0,0,0
				C386,328.6,386,331.9,384,333.8"/>
			<path id="Path_25370" class="st2" d="M109.1,159.3c-2,2-5.2,2-7.2,0s-2-5.2,0-7.2c2-2,5.2-2,7.2,0c0,0,0,0,0,0
				C111.1,154.1,111.1,157.3,109.1,159.3"/>
			<path id="Path_25371" class="st3" d="M165.3,215.5c-2,2-5.2,2-7.2,0s-2-5.2,0-7.2s5.2-2,7.2,0c0,0,0,0,0,0
				C167.2,210.3,167.2,213.5,165.3,215.5"/>
			<path id="Path_25372" class="st2" d="M221.5,271.7c-2,2-5.2,2-7.2,0c-2-2-2-5.2,0-7.2c2-2,5.2-2,7.2,0
				C223.4,266.5,223.4,269.7,221.5,271.7C221.5,271.7,221.5,271.7,221.5,271.7"/>
			<path id="Path_25373" class="st3" d="M277.6,327.9c-2,2-5.2,2-7.2,0s-2-5.2,0-7.2c2-2,5.2-2,7.2,0c0,0,0,0,0,0
				C279.6,322.7,279.6,325.9,277.6,327.9"/>
			<path id="Path_25374" class="st2" d="M333.8,384c-2,2-5.2,2-7.2,0c-2-2-2-5.2,0-7.2c2-2,5.2-2,7.2,0c0,0,0,0,0,0
				C335.8,378.9,335.8,382.1,333.8,384"/>
			<path id="Path_25375" class="st2" d="M58.9,209.5c-2,2-5.2,2-7.2,0c-2-2-2-5.2,0-7.2c2-2,5.2-2,7.2,0c0,0,0,0,0,0
				C60.8,204.3,60.8,207.5,58.9,209.5"/>
			<path id="Path_25376" class="st2" d="M115.1,265.7c-2,2-5.2,2-7.2,0c-2-2-2-5.2,0-7.2c2-2,5.2-2,7.2,0
				C117,260.5,117,263.7,115.1,265.7C115.1,265.7,115.1,265.7,115.1,265.7"/>
			<path id="Path_25377" class="st3" d="M171.2,321.9c-2,2-5.2,2-7.2,0s-2-5.2,0-7.2c2-2,5.2-2,7.2,0c0,0,0,0,0,0
				C173.2,316.7,173.2,319.9,171.2,321.9"/>
			<path id="Path_25378" class="st2" d="M227.4,378.1c-2,2-5.2,2-7.2,0c-2-2-2-5.2,0-7.2c2-2,5.2-2,7.2,0c0,0,0,0,0,0
				C229.4,372.9,229.4,376.1,227.4,378.1"/>
			<path id="Path_25379" class="st3" d="M283.6,434.3c-2,2-5.2,2-7.2,0c-2-2-2-5.2,0-7.2c2-2,5.2-2,7.2,0
				C285.6,429.1,285.6,432.3,283.6,434.3"/>
			<path id="Path_25380" class="st2" d="M8.7,259.7c-2,2-5.2,2-7.2,0s-2-5.2,0-7.2c2-2,5.2-2,7.2,0C10.6,254.5,10.6,257.7,8.7,259.7
				"/>
			<path id="Path_25381" class="st3" d="M64.8,315.9c-2,2-5.2,2-7.2,0s-2-5.2,0-7.2c2-2,5.2-2,7.2,0c0,0,0,0,0,0
				C66.8,310.7,66.8,313.9,64.8,315.9"/>
			<path id="Path_25382" class="st2" d="M121,372.1c-2,2-5.2,2-7.2,0c-2-2-2-5.2,0-7.2c2-2,5.2-2,7.2,0
				C123,366.9,123,370.1,121,372.1C121,372.1,121,372.1,121,372.1"/>
			<path id="Path_25383" class="st3" d="M177.2,428.3c-2,2-5.2,2-7.2,0c-2-2-2-5.2,0-7.2c2-2,5.2-2,7.2,0c0,0,0,0,0,0
				C179.2,423.1,179.2,426.3,177.2,428.3"/>
			<path id="Path_25384" class="st2" d="M233.4,484.5c-2,2-5.2,2-7.2,0c-2-2-2-5.2,0-7.2s5.2-2,7.2,0c0,0,0,0,0,0
				C235.4,479.3,235.4,482.5,233.4,484.5"/>
		</g>
	</g>
</g>
</svg>
