<?xml version="1.0" encoding="utf-8"?>
<!-- Generator: Adobe Illustrator 27.0.0, SVG Export Plug-In . SVG Version: 6.00 Build 0)  -->
<svg version="1.1" id="Layer_1" xmlns="http://www.w3.org/2000/svg" xmlns:xlink="http://www.w3.org/1999/xlink" x="0px" y="0px"
	 viewBox="0 0 310.8 310.8" style="enable-background:new 0 0 310.8 310.8;" xml:space="preserve">
<style type="text/css">
	.st0{fill:none;}
	.st1{fill:#20B2AA;}
	.st2{fill:#B5B5B5;}
</style>
<rect class="st0" width="310.8" height="310.8"/>
<path id="Path_25399" class="st1" d="M155.4,310.8C69.7,310.8,0,241.1,0,155.4S69.7,0,155.4,0s155.4,69.7,155.4,155.4
	S241.1,310.8,155.4,310.8 M155.4,3.5C71.6,3.5,3.5,71.6,3.5,155.4s68.1,151.9,151.9,151.9s151.9-68.1,151.9-151.9
	S239.1,3.5,155.4,3.5"/>
<path id="Path_25400" class="st2" d="M155.4,285.8C83.5,285.8,25,227.3,25,155.4C25.1,83.4,83.4,25.1,155.4,25
	c71.9,0,130.4,58.5,130.4,130.4C285.7,227.4,227.4,285.7,155.4,285.8 M155.4,28.5c-70.1,0-126.9,56.8-126.9,126.9
	s56.8,126.9,126.9,126.9c70.1,0,126.9-56.8,126.9-126.9C282.2,85.3,225.4,28.6,155.4,28.5"/>
<path id="Path_25401" class="st1" d="M155.4,260.8C97.2,260.8,50,213.6,50,155.4C50,97.2,97.2,50,155.4,50
	c58.2,0,105.4,47.2,105.4,105.4c0,0,0,0,0,0C260.7,213.6,213.6,260.7,155.4,260.8 M155.4,53.5c-56.3,0-101.9,45.6-101.9,101.9
	c0,56.3,45.6,101.9,101.9,101.9c56.3,0,101.9-45.6,101.9-101.9c0,0,0,0,0,0C257.2,99.1,211.6,53.5,155.4,53.5"/>
<path id="Path_25402" class="st2" d="M155.4,235.8c-44.4,0-80.4-36-80.4-80.4S111,75,155.4,75s80.4,36,80.4,80.4l0,0
	C235.8,199.8,199.8,235.8,155.4,235.8 M155.4,78.5c-42.5,0-76.9,34.4-76.9,76.9s34.4,76.9,76.9,76.9s76.9-34.4,76.9-76.9l0,0
	C232.3,112.9,197.9,78.5,155.4,78.5"/>
<path id="Path_25403" class="st1" d="M155.4,210.8c-30.6,0-55.4-24.8-55.5-55.4s24.8-55.4,55.4-55.5s55.4,24.8,55.5,55.4
	c0,0,0,0,0,0C210.8,186,186,210.8,155.4,210.8 M155.4,103.4c-28.7,0-51.9,23.3-51.9,51.9c0,28.7,23.3,51.9,51.9,51.9
	c28.7,0,51.9-23.3,51.9-51.9c0,0,0,0,0,0C207.3,126.7,184.1,103.5,155.4,103.4"/>
</svg>
